<svg width="79" height="20" viewBox="0 0 79 20" fill="none" xmlns="http://www.w3.org/2000/svg">
<g clip-path="url(#clip0_153_15430)">
<path d="M1.71757 9.52194H0V5.82307H1.71757V5.25326C1.71757 0.629666 5.89059 0.000246204 8.15258 0.000246204C8.62687 -0.00291708 9.10087 0.0244044 9.57168 0.0820429V4.07761C9.31872 4.03989 9.06329 4.02135 8.80755 4.02215C7.87622 4.02076 6.43501 4.18574 6.43501 5.39051V5.82307H9.02588V9.52194H6.43501V19.6731H1.71757V9.52194Z" fill="#5B1179"/>
<path d="M11.127 5.58203H15.8444V13.8449C15.8444 15.1578 16.3626 15.7054 17.3436 15.7054C19.3624 15.7054 20.3173 13.9267 20.3173 11.8235V5.5848H25.0347V19.6733H20.5079V18.4394C20.509 18.147 20.527 17.8549 20.5618 17.5646H20.5079C19.7438 19.0688 17.9986 19.9991 16.1166 19.9991C13.3351 19.9991 11.127 18.6862 11.127 14.7197V5.58203Z" fill="#5B1179"/>
<path d="M29.451 14.7484C29.451 14.7484 31.0055 16.1709 33.0243 16.1709C33.7332 16.1709 34.4144 15.9796 34.4144 15.5151C34.4144 14.284 27.8426 14.1468 27.8426 9.55366C27.8426 6.89873 30.3782 5.25586 33.624 5.25586C36.8961 5.25586 38.5598 6.871 38.5598 6.871L36.9514 10.2344C35.9938 9.50313 34.8273 9.1002 33.624 9.08506C32.9152 9.08506 32.2339 9.27638 32.2339 9.76854C32.2339 10.8361 38.8058 11.001 38.8058 15.5428C38.8058 17.9496 36.6778 20.0015 33.052 20.0015C29.5339 20.0015 27.4336 17.9219 27.4336 17.9219L29.451 14.7484Z" fill="#5B1179"/>
<path d="M41.3691 5.58144H46.0866V19.6727H41.3691V5.58144ZM41.423 0.109375H46.0327V3.80271H41.423V0.109375Z" fill="#5B1179"/>
</g>
<g clip-path="url(#clip1_153_15430)">
<path d="M54.2328 6.84958C54.2328 6.54443 54.3516 6.25177 54.5632 6.03599C54.7748 5.82021 55.0617 5.69899 55.3609 5.69899V7.99601C55.0624 7.99601 54.7761 7.87536 54.5647 7.66048C54.3532 7.4456 54.2339 7.15402 54.2328 6.84958ZM49.926 13.7531C49.9267 13.5385 49.8685 13.328 49.7579 13.1454C49.6473 12.9628 49.4888 12.8154 49.3004 12.72C49.1119 12.6245 48.901 12.5848 48.6916 12.6053C48.4821 12.6258 48.2825 12.7057 48.1152 12.836C48.1355 13.5199 48.2492 14.1977 48.4531 14.8495C48.5642 14.8853 48.68 14.9035 48.7965 14.9037C48.9447 14.9039 49.0916 14.8743 49.2286 14.8165C49.3656 14.7588 49.4902 14.6741 49.5951 14.5672C49.7 14.4604 49.7832 14.3335 49.84 14.1938C49.8968 14.0541 49.926 13.9044 49.926 13.7531ZM52.0801 9.18551C51.783 9.18549 51.4979 9.305 51.2867 9.51808C51.0754 9.73116 50.9552 10.0206 50.9519 10.3236V10.3361C50.9519 10.5637 51.0181 10.7861 51.1421 10.9753C51.266 11.1645 51.4422 11.312 51.6483 11.3991C51.8545 11.4862 52.0813 11.509 52.3002 11.4646C52.519 11.4202 52.72 11.3106 52.8778 11.1497C53.0356 10.9888 53.143 10.7838 53.1865 10.5606C53.2301 10.3374 53.2077 10.106 53.1223 9.89579C53.0369 9.68555 52.8923 9.50585 52.7068 9.37942C52.5213 9.25299 52.3032 9.18551 52.0801 9.18551ZM48.7965 12.2885C48.9935 12.2881 49.1884 12.3297 49.3687 12.4108C49.6412 12.5328 49.8698 12.7382 50.0227 12.9986L50.0363 13.0222C50.0363 13.0028 50.0486 12.9833 50.0554 12.9638C50.1661 12.6532 50.3426 12.3712 50.5725 12.1382C50.8024 11.9052 51.0799 11.7269 51.3852 11.6159C51.1614 11.4891 50.975 11.3036 50.8451 11.0785C50.7153 10.8535 50.6468 10.5972 50.6467 10.3361V10.3014V10.2666C50.6466 9.86561 50.5233 9.47472 50.2941 9.14893C50.0648 8.82314 49.7412 8.57885 49.3687 8.45041C48.6489 9.52476 48.2224 10.7751 48.1329 12.0731C48.1248 12.1801 48.1152 12.2885 48.1152 12.3983C48.1152 12.4205 48.1152 12.4427 48.1152 12.465C48.1425 12.4497 48.1711 12.4358 48.1997 12.4233C48.3867 12.3347 48.5903 12.2887 48.7965 12.2885ZM55.3609 8.31562C54.8683 8.32436 54.3988 8.53011 54.0535 8.88853C53.7081 9.24696 53.5147 9.72938 53.5148 10.2319C53.5148 10.2671 53.5148 10.3018 53.5148 10.3361C53.5152 10.5745 53.4581 10.8093 53.3485 11.0198C53.2234 11.2614 53.0347 11.4625 52.8035 11.6006C53.127 11.7107 53.4209 11.8961 53.6619 12.1421C53.9029 12.3881 54.0843 12.688 54.1919 13.018C54.3499 12.7409 54.5925 12.5242 54.8827 12.4011C55.0355 12.3364 55.1983 12.2997 55.3637 12.2927L55.3609 8.31562ZM53.9984 17.2397C53.9201 17.245 53.8467 17.2804 53.7931 17.3389C53.7395 17.3973 53.7097 17.4744 53.7097 17.5544C53.7097 17.6344 53.7395 17.7115 53.7931 17.7699C53.8467 17.8284 53.9201 17.8638 53.9984 17.8691H54.3132V17.4912C54.3186 17.3689 54.1565 17.2397 54.0039 17.2397H53.9984ZM54.1688 14.4604C54.1637 14.4524 54.1591 14.4441 54.1551 14.4354C54.0451 14.2245 53.9876 13.9893 53.9875 13.7504C53.9869 13.7388 53.9869 13.7272 53.9875 13.7156C53.9866 13.2283 53.8037 12.7597 53.4762 12.4049C53.1486 12.0502 52.7009 11.8359 52.2241 11.8057C51.7472 11.7754 51.2769 11.9314 50.9088 12.2421C50.5407 12.5527 50.3023 12.9946 50.2421 13.478C50.2349 13.5496 50.2312 13.6214 50.2312 13.6934V13.7017C50.2318 13.7073 50.2318 13.7129 50.2312 13.7184V13.7795C50.2297 13.8499 50.2233 13.92 50.2121 13.9894C50.1864 14.1566 50.131 14.3177 50.0486 14.4646C50.0403 14.4813 50.0312 14.4975 50.0214 14.5133C49.8941 14.7288 49.7146 14.9073 49.5 15.0314C49.2855 15.1556 49.0432 15.2212 48.7965 15.2219C48.7208 15.2216 48.6452 15.2156 48.5703 15.2039C49.0256 16.4441 49.7991 17.5369 50.8101 18.368C51.821 19.1992 53.0323 19.7381 54.3173 19.9285V18.2179H54.0039C53.8365 18.2101 53.6785 18.1368 53.5627 18.0132C53.447 17.8896 53.3824 17.7253 53.3824 17.5544C53.3824 17.3835 53.447 17.2192 53.5627 17.0956C53.6785 16.972 53.8365 16.8987 54.0039 16.8909C54.3132 16.8895 54.6552 17.1479 54.6552 17.4912V17.8691H55.3555V15.2219C55.1116 15.2083 54.8752 15.1314 54.6685 14.9987C54.4618 14.8659 54.2917 14.6816 54.1742 14.4632L54.1688 14.4604ZM54.6552 19.9647C54.8879 19.9882 55.1216 19.9998 55.3555 19.9994V18.2179H54.6552V19.9647ZM50.8402 9.58571C50.9672 9.37031 51.1465 9.1919 51.3607 9.06767C51.5749 8.94345 51.8169 8.87761 52.0634 8.87649C52.3098 8.87538 52.5524 8.93902 52.7677 9.0613C52.983 9.18357 53.1638 9.36035 53.2927 9.5746C53.394 9.24227 53.5699 8.93862 53.8064 8.68775C54.0429 8.43688 54.3335 8.24571 54.6552 8.12941C54.3767 7.97135 54.1576 7.7233 54.0326 7.42432C53.9075 7.12533 53.8835 6.79241 53.9643 6.47799C54.0452 6.16356 54.2263 5.88551 54.4792 5.68762C54.732 5.48972 55.0422 5.38324 55.3609 5.38494V5.2168C54.2331 5.21598 53.1206 5.48407 52.1124 5.99966C51.1042 6.51526 50.2281 7.26409 49.554 8.18638C49.858 8.30693 50.1318 8.49508 50.3554 8.73715C50.5791 8.97922 50.747 9.26911 50.847 9.58571H50.8402ZM54.3023 13.7184C54.3016 13.73 54.3016 13.7416 54.3023 13.7531C54.3028 14.0461 54.4127 14.3278 54.6096 14.541C54.8065 14.7542 55.0756 14.8829 55.3623 14.901V12.6067C55.0813 12.6233 54.8166 12.7466 54.6204 12.9524C54.4242 13.1582 54.3107 13.4315 54.3023 13.7184ZM56.4904 6.84958C56.4904 6.69849 56.4612 6.54887 56.4046 6.40927C56.3479 6.26967 56.2648 6.14283 56.16 6.03599C56.0552 5.92915 55.9309 5.8444 55.794 5.78658C55.6571 5.72875 55.5104 5.69899 55.3623 5.69899V7.99601C55.6608 7.99601 55.9471 7.87536 56.1586 7.66048C56.37 7.4456 56.4893 7.15402 56.4904 6.84958ZM60.7972 13.7531C60.7972 14.0583 60.9161 14.351 61.1277 14.5667C61.3392 14.7825 61.6262 14.9037 61.9254 14.9037C62.0423 14.9038 62.1586 14.8855 62.2701 14.8495C62.4735 14.1976 62.5868 13.5199 62.6066 12.836C62.4393 12.7067 62.2398 12.6276 62.0308 12.6076C61.8217 12.5876 61.6113 12.6275 61.4233 12.7228C61.2353 12.8181 61.077 12.965 60.9664 13.147C60.8558 13.3291 60.7972 13.539 60.7972 13.7531ZM59.7727 10.3236C59.771 10.0171 59.6503 9.72385 59.437 9.50803C59.2237 9.29221 58.9351 9.17148 58.6347 9.17231C58.3342 9.17314 58.0463 9.29546 57.8341 9.51245C57.6219 9.72944 57.5028 10.0234 57.5028 10.3298C57.5028 10.6363 57.6219 10.9303 57.8341 11.1472C58.0463 11.3642 58.3342 11.4866 58.6347 11.4874C58.9351 11.4882 59.2237 11.3675 59.437 11.1517C59.6503 10.9358 59.771 10.6426 59.7727 10.3361V10.3236ZM60.0792 10.2666C60.0785 10.2782 60.0785 10.2898 60.0792 10.3014C60.0799 10.3129 60.0799 10.3245 60.0792 10.3361C60.0791 10.5972 60.0106 10.8535 59.8808 11.0785C59.751 11.3036 59.5645 11.4891 59.3407 11.6159C59.6447 11.7265 59.921 11.9039 60.1502 12.1357C60.3793 12.3674 60.5556 12.6478 60.6664 12.9569C60.6733 12.9763 60.6801 12.9958 60.6855 13.0153L60.6991 12.9916C60.8532 12.7344 61.081 12.5316 61.3518 12.4108C61.5366 12.3281 61.7365 12.2864 61.9383 12.2886C62.1401 12.2907 62.3391 12.3366 62.5222 12.4233C62.5511 12.4355 62.5793 12.4494 62.6066 12.465C62.6066 12.4427 62.6066 12.4205 62.6066 12.3983C62.6066 12.2885 62.5984 12.1801 62.5916 12.0731C62.549 11.4705 62.4341 10.8755 62.2497 10.3014C62.0385 9.64433 61.7372 9.02114 61.3545 8.45041C60.9825 8.57932 60.6595 8.82382 60.4308 9.14957C60.2021 9.47532 60.0791 9.86595 60.0792 10.2666ZM56.5368 13.018C56.6446 12.6882 56.8262 12.3884 57.0671 12.1424C57.3081 11.8964 57.6018 11.711 57.9251 11.6006C57.694 11.4625 57.5052 11.2614 57.3801 11.0198C57.2705 10.8093 57.2135 10.5745 57.2139 10.3361C57.2139 10.3018 57.2139 10.2671 57.2139 10.2319C57.214 9.72843 57.0198 9.24519 56.6733 8.88661C56.3268 8.52803 55.8559 8.32292 55.3623 8.31562V12.2927C55.5276 12.2997 55.6904 12.3364 55.8432 12.4011C56.1334 12.5242 56.376 12.7409 56.534 13.018H56.5368ZM57.0313 17.5551C57.0313 17.4714 56.9988 17.3912 56.9407 17.332C56.8827 17.2729 56.8041 17.2397 56.7221 17.2397C56.5695 17.2397 56.4073 17.3689 56.4073 17.4912V17.8691H56.7221C56.8034 17.8684 56.8811 17.8351 56.9385 17.7763C56.9959 17.7175 57.0283 17.638 57.0286 17.5551H57.0313ZM60.71 14.5146C60.7002 14.4989 60.6911 14.4827 60.6828 14.466C60.5985 14.3195 60.5412 14.1584 60.5138 13.9908C60.5026 13.9214 60.4963 13.8512 60.4948 13.7809V13.7198C60.4941 13.7142 60.4941 13.7086 60.4948 13.7031V13.6934C60.4933 13.6223 60.4883 13.5513 60.4798 13.4808C60.4196 12.9974 60.1812 12.5555 59.8131 12.2448C59.4449 11.9342 58.9747 11.7782 58.4978 11.8084C58.0209 11.8387 57.5733 12.053 57.2457 12.4077C56.9182 12.7625 56.7353 13.2311 56.7343 13.7184C56.735 13.73 56.735 13.7416 56.7343 13.7531C56.733 13.9924 56.6741 14.2277 56.5626 14.4382C56.5586 14.4468 56.5541 14.4552 56.549 14.4632C56.4311 14.6824 56.2601 14.8672 56.0524 15C55.8447 15.1328 55.6071 15.2092 55.3623 15.2219V17.8761H56.064V17.4912C56.064 17.1479 56.41 16.8909 56.7193 16.8909C56.8073 16.8868 56.8951 16.9009 56.9776 16.9324C57.06 16.9639 57.1353 17.0121 57.199 17.0741C57.2626 17.1361 57.3133 17.2107 57.3479 17.2932C57.3825 17.3758 57.4004 17.4646 57.4004 17.5544C57.4004 17.6442 57.3825 17.733 57.3479 17.8156C57.3133 17.8981 57.2626 17.9727 57.199 18.0347C57.1353 18.0967 57.06 18.1449 56.9776 18.1764C56.8951 18.2079 56.8073 18.222 56.7193 18.2179H56.4046V19.923C57.6896 19.7325 58.9008 19.1936 59.9118 18.3625C60.9227 17.5314 61.6963 16.4386 62.1516 15.1983C62.0772 15.21 62.002 15.2161 61.9267 15.2164C61.6805 15.2165 61.4384 15.1519 61.2237 15.0291C61.0089 14.9062 60.8288 14.729 60.7005 14.5146H60.71ZM55.3623 19.9994C55.5994 19.9994 55.8323 19.9883 56.064 19.9647V18.2179H55.3623V19.9994ZM56.7984 6.84958C56.7993 7.11162 56.7312 7.3691 56.6013 7.59519C56.4714 7.82127 56.2845 8.00768 56.0599 8.13497C56.3815 8.25126 56.6721 8.44244 56.9086 8.69331C57.1451 8.94417 57.321 9.24783 57.4224 9.58016C57.5512 9.36591 57.732 9.18913 57.9474 9.06686C58.1627 8.94458 58.4052 8.88094 58.6517 8.88205C58.8981 8.88317 59.1401 8.94901 59.3544 9.07323C59.5686 9.19745 59.7478 9.37587 59.8748 9.59127C59.9748 9.27466 60.1428 8.98478 60.3664 8.74271C60.5901 8.50064 60.8639 8.31249 61.1678 8.19194C60.4945 7.26881 59.6189 6.51903 58.6109 6.00246C57.6029 5.48589 56.4904 5.21684 55.3623 5.2168V5.38494C55.7429 5.38568 56.1078 5.54022 56.3769 5.81474C56.6461 6.08925 56.7976 6.46136 56.7984 6.84958ZM56.4264 13.7531C56.427 13.7416 56.427 13.73 56.4264 13.7184C56.418 13.4317 56.3047 13.1586 56.1088 12.9528C55.9128 12.7471 55.6485 12.6236 55.3677 12.6067V14.901C55.6542 14.8826 55.923 14.7537 56.1196 14.5405C56.3162 14.3274 56.4259 14.0458 56.4264 13.7531Z" fill="#FFB205"/>
</g>
<g clip-path="url(#clip2_153_15430)">
<path d="M64.6367 5.83808H69.1211V7.07554C69.1201 7.36945 69.1022 7.66305 69.0677 7.95486H69.1211C69.7699 6.85536 71.0936 5.50781 73.5521 5.50781C76.361 5.50781 78.5498 6.82749 78.5498 10.8158V20.0006H73.8751V11.6951C73.8751 10.3754 73.3618 9.82777 72.3352 9.82777C70.8773 9.82777 69.9862 10.65 69.581 11.8609C69.3873 12.4642 69.2948 13.0965 69.3073 13.7311V20.002H64.6367V5.83808Z" fill="#5B1179"/>
</g>
<defs>
<clipPath id="clip0_153_15430">
<rect width="46.087" height="20" fill="white"/>
</clipPath>
<clipPath id="clip1_153_15430">
<rect width="14.4928" height="14.7826" fill="white" transform="translate(48.1152 5.2168)"/>
</clipPath>
<clipPath id="clip2_153_15430">
<rect width="13.913" height="14.4928" fill="white" transform="translate(64.6367 5.50781)"/>
</clipPath>
</defs>
</svg>
